<svg height="511pt" viewBox="-27 0 511 511.99977" width="511pt" xmlns="http://www.w3.org/2000/svg"><path d="m420.179688 117.632812c-60.953126-105.574218-195.992188-141.710937-301.535157-80.660156-105.761719 61.175782-141.683593 195.472656-80.59375 301.285156 32.703125 56.640626 86.730469 93.28125 146.085938 105.664063 5.71875 1.191406 9.398437 6.773437 8.226562 12.496094l-8.59375 41.929687c-.949219 4.632813 4.019531 8.210938 8.113281 5.847656l147.542969-85.183593c105.523438-60.925781 141.679688-195.855469 80.753907-301.378907zm0 0" fill="#338def"/><path d="m222.402344 456.417969c1.171875-5.722657-2.503906-11.304688-8.222656-12.496094-59.355469-12.382813-113.386719-49.023437-146.085938-105.667969-61.089844-105.808594-25.167969-240.105468 80.589844-301.28125 30.171875-17.453125 62.753906-26.949218 95.324218-29.167968-42.300781-2.898438-85.894531 6.335937-125.363281 29.167968-105.761719 61.175782-141.683593 195.472656-80.59375 301.285156 32.703125 56.640626 86.730469 93.28125 146.085938 105.664063 5.71875 1.191406 9.398437 6.773437 8.226562 12.496094l-8.59375 41.929687c-.949219 4.632813 4.019531 8.210938 8.113281 5.847656l23.511719-13.574218zm0 0" fill="#117ac9"/><path d="m233.820312 200.621094h37.210938c8.234375 0 12.515625 9.222656 12.515625 18.113281 0 9.222656-4.28125 18.113281-12.515625 18.113281h-37.210938v105.050782c0 9.21875-12.183593 15.476562-26.015624 15.476562-14.160157 0-25.027344-6.257812-25.027344-15.476562v-164.65625c0-38.199219 26.34375-66.191407 57.957031-66.191407h23.710937c12.84375 0 19.101563 10.867188 19.101563 21.40625 0 10.867188-6.257813 21.402344-19.101563 21.402344h-12.511718c-10.539063 0-18.113282 5.597656-18.113282 17.785156zm0 0" fill="#e4eaf8"/><path d="m212.722656 341.898438v-164.65625c0-36.683594 24.296875-63.933594 54.21875-66.042969-.800781-.09375-1.632812-.148438-2.496094-.148438h-23.710937c-31.613281 0-57.957031 27.992188-57.957031 66.191407v164.65625c0 9.21875 10.867187 15.476562 25.027344 15.476562 5.507812 0 10.753906-.996094 15.074218-2.773438-6.21875-2.683593-10.15625-7.15625-10.15625-12.703124zm0 0" fill="#c7d2e5"/><g fill="#020202"><path d="m246.925781.046875c-4.144531-.34375-7.753906 2.75-8.085937 6.886719-.332032 4.132812 2.75 7.753906 6.886718 8.085937 69.976563 5.609375 132.675782 45.199219 167.71875 105.894531 58.757813 101.765626 23.765626 232.359376-78.003906 291.117188l-143.640625 82.929688 7.6875-37.511719c1.996094-9.742188-4.304687-19.324219-14.046875-21.355469-59.382812-12.386719-110.816406-49.589844-141.117187-102.066406-78.105469-135.289063 11.863281-306.679688 167.546875-319.03125 4.136718-.328125 7.222656-3.945313 6.894531-8.082032-.328125-4.132812-3.945313-7.203124-8.082031-6.8906245-93.019532 7.3789065-176.632813 72.1523435-202.390625 168.4375005-33.933594 126.855468 46.375 255.699218 174.082031 282.335937 1.660156.347656 2.738281 1.980469 2.398438 3.636719l-8.59375 41.929687c-2.25 10.980469 9.523437 19.460938 19.226562 13.859375l147.546875-85.183594c52.769531-30.46875 90.519531-79.664062 106.292969-138.523437 37.113281-138.511719-61.074219-275.140625-202.320313-286.46875zm0 0"/><path d="m251.703125 160.898438h12.511719c17.46875 0 26.609375-14.546876 26.609375-28.917969 0-14.367188-9.140625-28.914063-26.609375-28.914063h-23.710938c-36.710937 0-65.46875 32.371094-65.46875 73.703125v164.652344c0 13.320313 13.683594 22.988281 32.539063 22.988281 19.113281 0 33.527343-9.882812 33.527343-22.988281v-37.015625c0-4.148438-3.363281-7.511719-7.511718-7.511719-4.148438 0-7.511719 3.363281-7.511719 7.511719v37.015625c0 3.25-7.207031 7.96875-18.503906 7.96875-10.476563 0-17.515625-4.121094-17.515625-7.96875v-164.652344c0-32.90625 22.160156-58.683593 50.445312-58.683593h23.710938c9.148437 0 11.589844 8.734374 11.589844 13.894531 0 2.320312-.558594 13.894531-11.589844 13.894531h-12.511719c-15.566406 0-25.621094 9.929688-25.621094 25.292969v28.980469c0 4.148437 3.359375 7.511718 7.507813 7.511718h37.210937c2.949219 0 5.003907 5.585938 5.003907 10.601563 0 5.097656-1.914063 10.601562-5.003907 10.601562h-37.210937c-4.148438 0-7.507813 3.359375-7.507813 7.507813v32.984375c0 4.152343 3.359375 7.511719 7.507813 7.511719 4.148437 0 7.511718-3.359376 7.511718-7.511719v-25.472657h29.699219c11.605469 0 20.023438-10.777343 20.023438-25.621093 0-14.847657-8.417969-25.625-20.023438-25.625h-29.699219v-21.46875c0-4.78125 1.203126-10.269531 10.601563-10.269531zm0 0"/></g></svg>