<?xml version="1.0" encoding="iso-8859-1"?>
<!-- Generator: Adobe Illustrator 19.0.0, SVG Export Plug-In . SVG Version: 6.00 Build 0)  -->
<svg version="1.1" id="Layer_1" xmlns="http://www.w3.org/2000/svg" xmlns:xlink="http://www.w3.org/1999/xlink" x="0px" y="0px"
	 viewBox="0 0 509.287 509.287" style="enable-background:new 0 0 509.287 509.287;" xml:space="preserve">
<path style="fill:#886C60;" d="M509.287,254.644C509.287,113.928,395.359,0,254.644,0S0,113.928,0,254.644
	c0,68.493,27.126,130.204,70.866,175.979h367.555C482.162,384.848,509.287,323.136,509.287,254.644z"/>
<path style="fill:#4F5565;" d="M70.866,430.623c46.453,48.487,111.555,78.665,183.777,78.665s137.324-30.177,183.777-78.665
	L70.866,430.623L70.866,430.623z"/>
<rect x="100.366" y="95.958" style="fill:#4484C5;" width="55.269" height="92.906"/>
<polygon style="fill:#FCFCFD;" points="407.905,430.623 101.383,430.623 101.383,208.191 254.644,79.682 407.905,208.191 "/>
<path style="fill:#6EB1E1;" d="M423.502,260.747L254.644,116.641L85.785,260.747c-11.868,10.172-29.499,8.816-39.672-3.052
	s-8.816-29.499,3.052-39.672L236.334,58.321c10.511-8.816,26.109-8.816,36.62,0l187.168,159.703
	c11.868,10.172,13.224,27.804,3.052,39.672C457.748,264.138,437.404,274.31,423.502,260.747z"/>
<rect x="195.984" y="279.396" style="fill:#4484C5;" width="117.319" height="151.566"/>
<g>
</g>
<g>
</g>
<g>
</g>
<g>
</g>
<g>
</g>
<g>
</g>
<g>
</g>
<g>
</g>
<g>
</g>
<g>
</g>
<g>
</g>
<g>
</g>
<g>
</g>
<g>
</g>
<g>
</g>
</svg>
