<?xml version="1.0" encoding="iso-8859-1"?>
<!-- Generator: Adobe Illustrator 19.0.0, SVG Export Plug-In . SVG Version: 6.00 Build 0)  -->
<svg version="1.1" id="Layer_1" xmlns="http://www.w3.org/2000/svg" xmlns:xlink="http://www.w3.org/1999/xlink" x="0px" y="0px"
	 viewBox="0 0 509.287 509.287" style="enable-background:new 0 0 509.287 509.287;" xml:space="preserve">
<circle style="fill:#FBD303;" cx="254.644" cy="254.644" r="254.644"/>
<path style="fill:#F0582F;" d="M436.726,51.878c-101.722-12.546-208.191,20.005-286.517,98.331S39.332,334.665,51.878,436.726
	c1.356,10.85,9.833,19.327,20.683,20.683c101.722,12.546,208.191-20.005,286.517-98.331s110.877-184.456,98.331-286.517
	C456.053,61.711,447.576,53.234,436.726,51.878z"/>
<g>
	<path style="fill:#FCFCFD;" d="M143.089,458.766c12.207-1.017,24.413-2.713,36.281-4.747L55.269,329.918
		c-2.374,11.868-3.73,24.074-4.747,36.281L143.089,458.766z"/>
	<path style="fill:#FCFCFD;" d="M454.019,179.37c2.374-11.868,3.73-24.074,4.747-36.281l-92.567-92.567
		c-12.207,1.017-24.413,2.713-36.281,4.747L454.019,179.37z"/>
	<path style="fill:#FCFCFD;" d="M313.642,181.743l-20.005,20.005l-15.936-16.615c-3.73-3.73-10.172-3.73-13.902,0
		s-3.73,10.172,0,13.902l16.276,16.275l-25.091,25.091l-16.276-16.276c-3.73-3.73-10.172-3.73-13.902,0s-3.73,10.172,0,13.902
		l16.275,16.276l-25.091,25.091l-16.275-16.276c-3.73-3.73-10.172-3.73-13.902,0c-3.73,3.73-3.73,10.172,0,13.902l16.275,16.275
		l-20.344,20.344c-3.73,3.73-3.73,10.172,0,13.902s10.172,3.73,13.902,0l20.005-20.005l16.275,16.276
		c3.73,3.73,10.172,3.73,13.902,0s3.73-10.172,0-13.902l-16.276-16.276l25.091-25.091l16.276,16.276c3.73,3.73,10.172,3.73,13.902,0
		s3.73-10.172,0-13.902l-16.276-16.276l25.091-25.091l16.276,16.276c3.73,3.73,10.172,3.73,13.902,0s3.73-10.172,0-13.902
		l-16.276-16.275l20.005-20.005c3.73-3.73,3.73-10.172,0-13.902C323.815,177.674,317.711,177.674,313.642,181.743z"/>
</g>
<g>
</g>
<g>
</g>
<g>
</g>
<g>
</g>
<g>
</g>
<g>
</g>
<g>
</g>
<g>
</g>
<g>
</g>
<g>
</g>
<g>
</g>
<g>
</g>
<g>
</g>
<g>
</g>
<g>
</g>
</svg>
