<svg height="511pt" viewBox="-27 0 511 511.99977" width="511pt" xmlns="http://www.w3.org/2000/svg"><path d="m420.242188 117.632812c-60.953126-105.574218-195.992188-141.710937-301.535157-80.660156-105.761719 61.175782-141.683593 195.472656-80.59375 301.285156 32.703125 56.640626 86.730469 93.28125 146.085938 105.664063 5.71875 1.191406 9.398437 6.773437 8.226562 12.496094l-8.59375 41.929687c-.949219 4.632813 4.015625 8.210938 8.113281 5.847656l147.542969-85.183593c105.523438-60.925781 141.675781-195.855469 80.753907-301.378907zm0 0" fill="#54a0ff"/><path d="m222.464844 456.417969c1.171875-5.722657-2.507813-11.304688-8.226563-12.496094-59.351562-12.382813-113.382812-49.023437-146.085937-105.667969-61.085938-105.808594-25.164063-240.105468 80.59375-301.28125 30.171875-17.453125 62.753906-26.949218 95.324218-29.167968-42.300781-2.898438-85.894531 6.335937-125.363281 29.167968-105.761719 61.175782-141.683593 195.472656-80.59375 301.285156 32.703125 56.640626 86.730469 93.28125 146.085938 105.664063 5.71875 1.191406 9.398437 6.773437 8.226562 12.496094l-8.59375 41.929687c-.949219 4.632813 4.015625 8.210938 8.113281 5.847656l23.511719-13.574218zm0 0" fill="#338def"/><path d="m359.449219 143.15625c.738281-.847656-.128907-2.117188-1.183594-1.746094l-32.082031 11.289063c-2.027344.714843-4.257813.136719-5.746094-1.414063-11.035156-11.503906-27.285156-17.960937-44.976562-15.4375-19.121094 2.730469-35.277344 16.566406-41.453126 34.871094-3.148437 9.332031-3.386718 18.300781-1.707031 26.578125.417969 2.042969-1.164062 3.992187-3.246093 3.84375-64.40625-4.566406-95.671876-43.125-105.917969-59.023437-1.519531-2.355469-5.125-1.578126-5.632813 1.175781-6.023437 32.546875.84375 52.554687 4.695313 60.574219.945312 1.96875-.371094 4.238281-2.546875 4.402343l-12.253906.894531c-2.167969.160157-3.546876 2.503907-2.570313 4.449219 10.515625 21.015625 25.625 33.128907 34.324219 38.777344 2.300781 1.496094 1.589844 5.019531-1.097656 5.570313l-6.660157 1.367187c-2.496093.511719-3.324219 3.660156-1.414062 5.347656 21.578125 19.066407 41.644531 24.109375 51.773437 25.421875 2.679688.34375 3.703125 3.734375 1.609375 5.441406-16.898437 13.785157-43.917969 18.203126-60.707031 19.605469-3.320312.277344-3.878906 4.933594-.726562 6.019531 36.816406 12.710938 67.265624 14.335938 92.34375 9.300782l-.003907.003906c.015625-.003906.03125-.007812.046875-.011719 10.574219-2.128906 20.183594-5.445312 28.917969-9.613281 91.171875-37.714844 92.429687-118.21875 91.675781-134.800781-.085937-1.90625.847656-3.714844 2.449219-4.757813l16.628906-10.839844c.84375-.550781.550781-1.859374-.449219-1.996093l-12.367187-1.695313c-.859375-.117187-1.246094-1.144531-.675781-1.796875zm0 0" fill="#e4eaf8"/><path d="m213.402344 295.539062c2.09375-1.707031 1.070312-5.097656-1.609375-5.441406-10.128907-1.3125-30.195313-6.355468-51.773438-25.421875-1.90625-1.6875-1.082031-4.835937 1.414063-5.347656l6.660156-1.367187c2.6875-.550782 3.402344-4.074219 1.101562-5.566407-8.699218-5.652343-23.8125-17.765625-34.328124-38.777343-.972657-1.945313.402343-4.292969 2.574218-4.449219l12.25-.898438c2.179688-.160156 3.492188-2.429687 2.550782-4.398437-2.785157-5.804688-7.144532-17.875-7.070313-36.417969-8.980469-7.914063-16.558594-16.832031-22.035156-25.335937-1.519531-2.355469-5.125-1.574219-5.632813 1.175781-3.582031 19.363281-3.855468 42.757812 4.695313 60.578125.910156 1.894531-.34375 4.234375-2.546875 4.398437l-11.472656.839844c-1 .074219-1.707032.117187-2.496094.761719-1.0625.871094-1.53125 2.398437-.855469 3.746094 8.164063 16.3125 20.484375 29.789062 34.324219 38.777343 2.304687 1.492188 1.589844 5.015625-1.097656 5.566407-3.765626.773437-1.511719.3125-6.660157 1.367187-2.457031.503906-3.34375 3.644531-1.414062 5.347656 14.503906 12.816407 32.820312 22.96875 51.773437 25.421875.035156.003906.066406.015625.097656.019532 2.640626.425781 3.542969 3.765624 1.511719 5.421874-15.640625 12.757813-40.519531 17.917969-60.707031 19.605469-3.320312.277344-3.878906 4.933594-.726562 6.019531 8.421874 2.910157 16.507812 5.230469 24.277343 7.03125 18.109375-3.386718 51.488281-19.84375 67.195313-32.65625zm0 0" fill="#c7d2e5"/><path d="m232.300781 197.296875c.417969 2.042969-1.164062 3.992187-3.246093 3.84375 4.332031 1.074219 9.734374.824219 15.292968.453125 9.203125-.617188 16.53125-7.996094 17.039063-17.207031 1.203125-21.769531 16.234375-40.613281 36.644531-46.863281-37.976562-11.5-73.332031 22.335937-65.730469 59.773437zm0 0" fill="#c7d2e5"/><g fill="#020202"><path d="m246.988281.046875c-4.136719-.34375-7.753906 2.75-8.085937 6.886719-.332032 4.132812 2.75 7.753906 6.886718 8.085937 69.976563 5.609375 132.675782 45.199219 167.71875 105.894531 58.753907 101.765626 23.761719 232.359376-78.003906 291.117188l-143.640625 82.929688 7.6875-37.511719c1.996094-9.742188-4.304687-19.324219-14.046875-21.355469-59.382812-12.386719-110.816406-49.589844-141.117187-102.066406-78.109375-135.289063 11.859375-306.679688 167.546875-319.03125 4.136718-.328125 7.21875-3.945313 6.894531-8.082032-.328125-4.132812-3.9375-7.203124-8.082031-6.8906245-166.835938 13.2382815-263.378906 196.0039065-179.367188 341.5117185 32.433594 56.179688 87.492188 96.003906 151.058594 109.261719 1.660156.347656 2.738281 1.980469 2.398438 3.636719l-8.59375 41.929687c-2.25 10.980469 9.523437 19.460938 19.226562 13.859375l147.546875-85.183594c52.769531-30.46875 90.519531-79.664062 106.292969-138.523437 37.109375-138.511719-61.074219-275.140625-202.320313-286.46875zm0 0"/><path d="m129.21875 137.574219c-5.199219-8.070313-17.585938-5.539063-19.332031 3.878906-5.234375 28.300781-1.316407 47.902344 2.84375 59.300781l-6.101563.445313c-7.519531.542969-12.113281 8.59375-8.75 15.300781 8.570313 17.125 20.0625 28.773438 29.023438 35.964844-6.488282 3.34375-7.800782 12.351562-2.125 17.363281 16.992187 15.015625 33.257812 21.917969 45.019531 25.078125-15.558594 8.371094-35.988281 11.277344-47.996094 12.28125-11.386719.949219-13.347656 16.867188-2.554687 20.601562 29.257812 10.101563 67.242187 16.667969 96.511718 9.515626 25.363282-5.148438 56.152344-20.441407 76.683594-38.097657 3.144532-2.707031 3.503906-7.449219.796875-10.59375-2.703125-3.144531-7.445312-3.503906-10.589843-.796875-18.714844 16.09375-47.644532 30.320313-70.085938 34.808594-20.855469 4.191406-44.027344 3.09375-69.097656-3.242188 15.574218-3.011718 32.179687-8.519531 44.414062-18.5 7.183594-5.851562 3.8125-17.523437-5.394531-18.710937-8.160156-1.054687-23.578125-4.824219-40.96875-18.027344 7.59375-3.359375 8.582031-13.921875 1.496094-18.527343-6.816407-4.425782-18.949219-13.890626-28.476563-29.9375l5.4375-.398438c7.441406-.542969 12-8.390625 8.769532-15.136719-2.757813-5.742187-8.25-20.761719-5.640626-45.328125 15.253907 19.417969 47.75 49.269532 105.191407 53.34375 7.128906.492188 12.527343-6.011718 11.136719-12.832031-1.542969-7.597656-1.050782-15.230469 1.464843-22.683594 10.785157-31.964843 51.027344-40.476562 73.890625-16.636719 3.53125 3.683594 8.890625 4.980469 13.660156 3.300782l9.171876-3.226563c-2.703126 3.109375-6.691407 6.53125-4.578126 12.148438.648438 1.722656 1.8125 3.15625 3.292969 4.136719l-3.308593 2.15625c-3.8125 2.484374-6.054688 6.847656-5.847657 11.382812.445313 9.78125.148438 44.25-22.308593 77.160156-2.339844 3.425782-1.457032 8.097656 1.96875 10.4375 3.425781 2.335938 8.101562 1.453125 10.4375-1.972656 24.214843-35.488281 25.355468-72.699219 24.957031-85.082031l15.628906-10.1875c6.660156-4.34375 4.355469-14.640625-3.53125-15.726563l-.605469-.085937 11.164063-12.839844c5.757812-6.625-1.035157-16.683594-9.34375-13.757813l-30.8125 10.84375c-39.4375-39.441406-106.664063-7.007812-100.886719 47.996094-57.097656-6.019531-85.082031-40.304687-94.625-55.117187zm0 0"/></g></svg>